<svg width="64" height="64" viewBox="0 0 64 64" fill="none" xmlns="http://www.w3.org/2000/svg">
<g clip-path="url(#clip0)">
<rect width="64" height="64" rx="10" fill="white"/>
<path fill-rule="evenodd" clip-rule="evenodd" d="M18.2494 17.1771C32.9371 15.4838 43.4138 25.9605 41.7002 40.6279C27.9505 43.4623 15.415 30.9268 18.2494 17.1771ZM9.23858 35.1703C13.6851 47.4297 23.1304 47.1373 33.1198 43.6207C28.741 42.6728 24.7292 40.4801 21.567 37.3062C20.1113 35.8496 18.8526 34.2087 17.823 32.4252C14.8767 33.0866 11.9956 34.0108 9.21422 35.1865L9.23858 35.1703ZM36.3644 7.80899C47.0969 12.2311 47.8806 22.2815 44.5346 32.7257C43.744 28.1372 41.564 23.902 38.2892 20.5922C36.888 19.1933 35.3034 17.9912 33.5787 17.0188C34.201 13.8716 35.1286 10.7925 36.3481 7.82523L36.3644 7.80899ZM49.2816 5.92074C65.1997 20.3526 53.2327 32.5633 45.4361 39.0036L45.8625 38.0088C48.4694 31.6821 49.9354 25.189 49.1395 19.4796C48.738 16.124 47.379 12.955 45.2249 10.351C46.4337 8.75152 47.7891 7.26834 49.2735 5.92075L49.2816 5.92074ZM6.9199 48.2824C21.3802 64.2371 33.936 51.7463 40.3398 44.0187C33.9766 46.8328 27.4307 49.123 21.567 48.7819C17.6484 48.5505 14.1115 47.247 11.2202 44.3476C9.67201 45.528 8.23526 46.8478 6.92802 48.2906L6.9199 48.2824Z" fill="black"/>
</g>
<defs>
<clipPath id="clip0">
<rect width="64" height="64" fill="white"/>
</clipPath>
</defs>
</svg>
